<?xml version="1.0" encoding="utf-8"?>
<!-- Generator: Adobe Illustrator 24.2.0, SVG Export Plug-In . SVG Version: 6.00 Build 0)  -->
<svg version="1.1" id="Livello_1" xmlns="http://www.w3.org/2000/svg" xmlns:xlink="http://www.w3.org/1999/xlink" x="0px" y="0px"
	 viewBox="0 0 282 133.6" style="enable-background:new 0 0 282 133.6;" xml:space="preserve">
<style type="text/css">
	.st0{display:none;}
	.st1{display:inline;fill:none;}
	.st2{display:inline;fill:none;stroke:#000000;stroke-width:0.25;stroke-miterlimit:10;}
	.st3{display:inline;fill:none;stroke:#000000;stroke-width:0.2713;stroke-miterlimit:10;}
	.st4{display:inline;fill:none;stroke:#000000;stroke-width:0.1915;stroke-miterlimit:10;}
	.st5{fill:url(#SVGID_1_);}
	.st6{fill:#6200EE;}
	.st7{fill:#FFFFFF;}
</style>
<g id="Livello_2_1_" class="st0">
	<line class="st1" x1="-295.9" y1="382.2" x2="-295.9" y2="382.2"/>
	<path class="st2" d="M-266.9,412.1h-104.7c-9.5,0-17.1-7.7-17.1-17.1V290.3c0-9.5,7.7-17.1,17.1-17.1h104.7
		c9.5,0,17.1,7.7,17.1,17.1V395C-249.7,404.5-257.4,412.1-266.9,412.1z"/>
	<rect x="-383.7" y="278.2" class="st2" width="129" height="129"/>
	<circle class="st2" cx="-319.2" cy="342.6" r="64.3"/>
	<rect x="-342.3" y="273.2" class="st3" width="46.3" height="138.8"/>
	<rect x="-388.5" y="273.2" class="st3" width="46.3" height="138.8"/>
	<rect x="-296" y="273.2" class="st3" width="46.3" height="138.8"/>
	<rect x="-388.6" y="319.5" class="st3" width="138.8" height="46.3"/>
	<rect x="-388.5" y="365.8" class="st3" width="138.8" height="46.3"/>
	<rect x="-388.6" y="273.2" class="st3" width="138.8" height="46.3"/>
	<circle class="st3" cx="-319.2" cy="342.6" r="32.8"/>
	<circle class="st4" cx="-319.2" cy="342.6" r="23.1"/>
</g>
<linearGradient id="SVGID_1_" gradientUnits="userSpaceOnUse" x1="109.8594" y1="120.4132" x2="23.3321" y2="17.2939" gradientTransform="matrix(1 0 0 -1 0 136)">
	<stop  offset="0" style="stop-color:#7933FF"/>
	<stop  offset="0.1772" style="stop-color:#7532F5"/>
	<stop  offset="0.4836" style="stop-color:#692FD8"/>
	<stop  offset="0.8802" style="stop-color:#572BAB"/>
	<stop  offset="1" style="stop-color:#51299C"/>
</linearGradient>
<path class="st5" d="M102,120H31.2c-9.6,0-17.4-7.8-17.4-17.4V31.7c0-9.6,7.8-17.4,17.4-17.4H102c9.6,0,17.4,7.8,17.4,17.4v70.8
	C119.4,112.2,111.6,120,102,120z"/>
<path class="st6" d="M137.4,89.5V45.6c0-1.4,1.2-2.6,2.6-2.6h25.8c1.4,0,2.6,1.2,2.6,2.6v3.9c0,1.4-1.2,2.6-2.6,2.6H147v12.1h16.5
	c1.4,0,2.6,1.2,2.6,2.6v3.6c0,1.4-1.2,2.6-2.6,2.6H147v16.5c0,1.4-1.2,2.6-2.6,2.6H140C138.6,92.1,137.4,90.9,137.4,89.5z
	 M181.8,72.5l8.4-1.2c1.9-0.3,2.6-1.2,2.6-2.4c0-2.4-1.9-4.4-5.7-4.4c-3.1,0-5.2,1.6-6.1,3.7c-0.4,1-1.5,1.6-2.6,1.4l-3.9-0.8
	c-1.3-0.3-2.1-1.6-1.7-2.9c1.6-4.5,6.3-8.8,14.1-8.8c10.8,0,14.8,6.1,14.8,12.9v16.8c0,0.9,0.1,2,0.1,3c0.1,1.3-0.9,2.4-2.2,2.4h-4
	c-1.2,0-2.1-0.9-2.2-2.1c-0.1-0.7-0.1-1.4-0.1-2c-1.7,2.7-5,5.1-10,5.1c-7.3,0-11.7-4.9-11.7-10.2C171.6,76.7,176.1,73.3,181.8,72.5
	z M192.7,78.3v-1.5L185,78c-2.4,0.3-4.2,1.7-4.2,4.3c0,2,1.5,3.9,4.4,3.9C189.1,86.2,192.7,84.3,192.7,78.3z M231.6,64.9
	c0,1.1-0.9,2-2,1.9c-0.2,0-0.5,0-0.7,0c-4.7,0-8.8,2.3-8.8,9.6V90c0,1.1-0.9,1.9-1.9,1.9h-5.3c-1.1,0-1.9-0.9-1.9-1.9V59.9
	c0-1.1,0.9-1.9,1.9-1.9h5.1c1.1,0,1.9,0.9,1.9,1.9V63c2.1-4.5,6.8-5.3,9.7-5.3c0.1,0,0.2,0,0.3,0c1.1,0,1.9,0.9,1.9,1.9v5.3H231.6z
	 M271,75c0,10.5-7.7,18.1-17.9,18.1s-17.9-7.6-17.9-18.1s7.7-18.1,17.9-18.1C263.3,56.9,271,64.5,271,75z M261.8,75
	c0-6.4-4.2-9.7-8.7-9.7c-4.5,0-8.7,3.3-8.7,9.7c0,6.4,4.2,9.7,8.7,9.7C257.6,84.7,261.8,81.5,261.8,75z"/>
<g>
	<path class="st7" d="M88.1,66.2H41.9c-0.5,0-0.9-0.4-0.9-0.9v-5.9c0-0.5,0.4-0.9,0.9-0.9H88c0.5,0,0.9,0.4,0.9,0.9v5.9
		C89,65.9,88.6,66.2,88.1,66.2z"/>
	<path class="st7" d="M44.7,89.2l-0.6,8.5c0,0.5,0.3,1,0.8,1l39.8,6.9c0.6,0.1,1.2-0.4,1.1-1l-0.9-8.8c0-0.4-0.3-0.8-0.8-0.9
		l-38.3-6.7C45.3,88.3,44.8,88.7,44.7,89.2z"/>
	<path class="st7" d="M45.7,70.6l-0.4,5.7c0,0.2,0.2,0.4,0.3,0.4l38.3,6.7c0.3,0.1,0.5-0.2,0.5-0.4l-1-10.1c0-0.2-0.2-0.3-0.3-0.3
		l-13.5-2.3H46.1C45.8,70.2,45.7,70.4,45.7,70.6z"/>
	<path class="st7" d="M64.8,27.1L64.8,27.1c-9.3,0-16.7,7.5-16.7,16.7v9.6c0,0.8,0.6,1.3,1.3,1.3h17.7c0.4,0,0.9-0.3,0.9-0.9v-7.7
		c0-2.9,2.3-5.2,5.2-5.2l0,0c2.9,0,5.2,2.3,5.2,5.2V54c0,0.3,0.3,0.7,0.7,0.7h1.8c0.3,0,0.7-0.3,0.7-0.7V43.8
		C81.6,34.6,74.1,27.1,64.8,27.1z"/>
</g>
</svg>
